<mxfile host="app.diagrams.net" modified="2023-11-29T10:03:20.046Z" agent="Mozilla/5.0 (Windows NT 10.0; Win64; x64) AppleWebKit/537.36 (KHTML, like Gecko) Chrome/119.0.0.0 Safari/537.36" version="22.1.4" etag="IKs5P5KL0tDTk37t6pxI" type="github">
  <diagram name="Страница — 1" id="2G7y_wyDDVsN3qOJYCN8">
    <mxGraphModel>
      <root>
        <mxCell id="0" />
        <mxCell id="1" parent="0" />
      </root>
    </mxGraphModel>
  </diagram>
</mxfile>
